<svg xmlns="http://www.w3.org/2000/svg" xmlns:xlink="http://www.w3.org/1999/xlink">

<symbol id="youtube" viewBox="0 0 16 16"  fill-rule="evenodd" clip-rule="evenodd" stroke-linejoin="round" stroke-miterlimit="1.414"><path d="M0 7.345c0-1.294.16-2.59.16-2.59s.156-1.1.636-1.587c.608-.637 1.408-.617 1.764-.684C3.84 2.36 8 2.324 8 2.324s3.362.004 5.6.166c.314.038.996.04 1.604.678.48.486.636 1.588.636 1.588S16 6.05 16 7.346v1.258c0 1.296-.16 2.59-.16 2.59s-.156 1.102-.636 1.588c-.608.638-1.29.64-1.604.678-2.238.162-5.6.166-5.6.166s-4.16-.037-5.44-.16c-.356-.067-1.156-.047-1.764-.684-.48-.487-.636-1.587-.636-1.587S0 9.9 0 8.605v-1.26zm6.348 2.73V5.58l4.323 2.255-4.32 2.24z"/></symbol>

<symbol id="soundcloud" viewBox="0 0 24 24" fill-rule="evenodd" clip-rule="evenodd" stroke-linejoin="round" stroke-miterlimit="1.414"><path d="M1.16 16.86c.05 0 .1-.04.1-.1l.27-2.1-.27-2.16c0-.05-.05-.1-.1-.1s-.1.05-.1.1l-.24 2.16.24 2.1c0 .06.05.1.1.1zm-.89-.8c.05 0 .09-.04.1-.09l.2-1.31-.2-1.33c-.01-.06-.05-.1-.1-.1s-.09.04-.1.1L0 14.66l.18 1.31c0 .05.04.1.1.1zm1.95-3.96c0-.07-.06-.12-.12-.12s-.11.05-.12.12l-.22 2.56.22 2.46c0 .07.06.12.12.12s.11-.05.12-.11l.26-2.47-.26-2.56zm.83 5.24c.08 0 .14-.06.14-.14l.24-2.54-.24-2.63c0-.08-.06-.14-.14-.14a.14.14 0 0 0-.14.14l-.21 2.63.21 2.54c0 .08.07.14.14.14zm.96.04c.09 0 .16-.07.16-.16l.23-2.56-.23-2.44c0-.09-.07-.16-.16-.16a.16.16 0 0 0-.16.16l-.2 2.44.2 2.56c0 .1.07.16.16.16zm1.36-2.72l-.21-3.96c0-.1-.09-.18-.18-.18-.1 0-.18.07-.19.18l-.18 3.96.18 2.56c.01.1.09.18.19.18s.17-.08.18-.18l.21-2.56zm.58 2.75c.1 0 .2-.09.2-.2l.2-2.55-.2-4.87a.2.2 0 0 0-.2-.2.2.2 0 0 0-.2.2l-.18 4.87.18 2.55c0 .11.1.2.2.2zm.98-8.25c-.12 0-.22.1-.22.22l-.16 5.28.16 2.52c0 .13.1.22.22.22s.22-.1.22-.22l.19-2.52-.19-5.28c0-.12-.1-.22-.22-.22zm1 8.25c.12 0 .23-.1.23-.24l.17-2.5-.17-5.46a.24.24 0 0 0-.24-.25c-.13 0-.24.11-.24.25l-.15 5.45.15 2.5c0 .14.1.25.24.25zm.99 0c.14 0 .26-.12.26-.27l.16-2.48-.16-5.32a.26.26 0 0 0-.26-.26.26.26 0 0 0-.27.26l-.13 5.32.13 2.48c0 .15.12.27.27.27zm1.43-2.75l-.14-5.12a.29.29 0 0 0-.29-.28.29.29 0 0 0-.28.28l-.13 5.12.13 2.47a.28.28 0 0 0 .57 0l.14-2.47zm.59 2.76a.3.3 0 0 0 .3-.3l.13-2.46-.13-6.1a.3.3 0 0 0-.3-.3.3.3 0 0 0-.3.3l-.12 6.1.11 2.45c0 .17.14.3.3.3zm1-9.73a.33.33 0 0 0-.32.33l-.14 6.64.14 2.42c0 .17.15.32.32.32.18 0 .33-.15.33-.32l.14-2.42-.14-6.64a.33.33 0 0 0-.33-.33zm.93 9.73h8.18a2.95 2.95 0 1 0-1.14-5.67 5.2 5.2 0 0 0-7.08-4.4c-.22.09-.28.18-.28.35v9.37c0 .18.14.33.32.35z"/></symbol>

<symbol id="mastodon" viewBox="0 0 16 16"  fill-rule="evenodd" clip-rule="evenodd" stroke-linejoin="round" stroke-miterlimit="1.414"><path d="M15.2,5.4C15.2,2,13,1,13,1c-1.1-0.5-3-0.7-5-0.7h0C6,0.3,4.1,0.5,3,1c0,0-2.2,1-2.2,4.3c0,0.8,0,1.7,0,2.7	c0.1,3.3,0.6,6.5,3.6,7.3C5.8,15.7,7,15.8,8,15.7c1.7-0.1,2.7-0.6,2.7-0.6l-0.1-1.3c0,0-1.3,0.4-2.7,0.3c-1.4,0-2.9-0.2-3.1-1.9	c0-0.1,0-0.3,0-0.5c0,0,1.4,0.3,3.1,0.4c1.1,0,2.1-0.1,3.1-0.2c1.9-0.2,3.6-1.4,3.8-2.5C15.2,7.8,15.2,5.4,15.2,5.4z M12.6,9.7H11	V5.7c0-0.8-0.3-1.2-1-1.2C9.2,4.5,8.8,5,8.8,6v2.2H7.2V6c0-1-0.4-1.5-1.2-1.5c-0.7,0-1,0.4-1,1.2v3.9H3.4V5.6c0-0.8,0.2-1.5,0.6-2	c0.4-0.5,1-0.7,1.7-0.7c0.8,0,1.4,0.3,1.9,0.9L8,4.5l0.4-0.7c0.4-0.6,1-0.9,1.9-0.9c0.7,0,1.3,0.2,1.7,0.7c0.4,0.5,0.6,1.1,0.6,2 V9.7z"/></symbol>

<symbol id="instagram" viewBox="0 0 16 16"  fill-rule="evenodd" clip-rule="evenodd" stroke-linejoin="round" stroke-miterlimit="1.414"><path d="M8 0C5.827 0 5.555.01 4.702.048 3.85.088 3.27.222 2.76.42c-.526.204-.973.478-1.417.923-.445.444-.72.89-.923 1.417-.198.51-.333 1.09-.372 1.942C.008 5.555 0 5.827 0 8s.01 2.445.048 3.298c.04.852.174 1.433.372 1.942.204.526.478.973.923 1.417.444.445.89.72 1.417.923.51.198 1.09.333 1.942.372.853.04 1.125.048 3.298.048s2.445-.01 3.298-.048c.852-.04 1.433-.174 1.942-.372.526-.204.973-.478 1.417-.923.445-.444.72-.89.923-1.417.198-.51.333-1.09.372-1.942.04-.853.048-1.125.048-3.298s-.01-2.445-.048-3.298c-.04-.852-.174-1.433-.372-1.942-.204-.526-.478-.973-.923-1.417-.444-.445-.89-.72-1.417-.923-.51-.198-1.09-.333-1.942-.372C10.445.008 10.173 0 8 0zm0 1.44c2.136 0 2.39.01 3.233.048.78.036 1.203.166 1.485.276.374.145.64.318.92.598.28.28.453.546.598.92.11.282.24.705.276 1.485.038.844.047 1.097.047 3.233s-.01 2.39-.05 3.233c-.04.78-.17 1.203-.28 1.485-.15.374-.32.64-.6.92-.28.28-.55.453-.92.598-.28.11-.71.24-1.49.276-.85.038-1.1.047-3.24.047s-2.39-.01-3.24-.05c-.78-.04-1.21-.17-1.49-.28-.38-.15-.64-.32-.92-.6-.28-.28-.46-.55-.6-.92-.11-.28-.24-.71-.28-1.49-.03-.84-.04-1.1-.04-3.23s.01-2.39.04-3.24c.04-.78.17-1.21.28-1.49.14-.38.32-.64.6-.92.28-.28.54-.46.92-.6.28-.11.7-.24 1.48-.28.85-.03 1.1-.04 3.24-.04zm0 2.452c-2.27 0-4.108 1.84-4.108 4.108 0 2.27 1.84 4.108 4.108 4.108 2.27 0 4.108-1.84 4.108-4.108 0-2.27-1.84-4.108-4.108-4.108zm0 6.775c-1.473 0-2.667-1.194-2.667-2.667 0-1.473 1.194-2.667 2.667-2.667 1.473 0 2.667 1.194 2.667 2.667 0 1.473-1.194 2.667-2.667 2.667zm5.23-6.937c0 .53-.43.96-.96.96s-.96-.43-.96-.96.43-.96.96-.96.96.43.96.96z"/></symbol>

<symbol id="github" viewBox="0 0 16 16" fill-rule="evenodd" clip-rule="evenodd" stroke-linejoin="round" stroke-miterlimit="1.414"><path d="M8 0C3.58 0 0 3.582 0 8c0 3.535 2.292 6.533 5.47 7.59.4.075.547-.172.547-.385 0-.19-.007-.693-.01-1.36-2.226.483-2.695-1.073-2.695-1.073-.364-.924-.89-1.17-.89-1.17-.725-.496.056-.486.056-.486.803.056 1.225.824 1.225.824.714 1.223 1.873.87 2.33.665.072-.517.278-.87.507-1.07-1.777-.2-3.644-.888-3.644-3.953 0-.873.31-1.587.823-2.147-.09-.202-.36-1.015.07-2.117 0 0 .67-.215 2.2.82.64-.178 1.32-.266 2-.27.68.004 1.36.092 2 .27 1.52-1.035 2.19-.82 2.19-.82.43 1.102.16 1.915.08 2.117.51.56.82 1.274.82 2.147 0 3.073-1.87 3.75-3.65 3.947.28.24.54.73.54 1.48 0 1.07-.01 1.93-.01 2.19 0 .21.14.46.55.38C13.71 14.53 16 11.53 16 8c0-4.418-3.582-8-8-8"/></symbol>

<symbol id="itch" viewBox="0 7 250 200" fill-rule="evenodd" clip-rule="evenodd" stroke-linejoin="round" stroke-miterlimit="1.414"><path d="M31.99 1.365C21.287 7.72.2 31.945 0 38.298v10.516C0 62.144 12.46 73.86 23.773 73.86c13.584 0 24.902-11.258 24.903-24.62 0 13.362 10.93 24.62 24.515 24.62 13.586 0 24.165-11.258 24.165-24.62 0 13.362 11.622 24.62 25.207 24.62h.246c13.586 0 25.208-11.258 25.208-24.62 0 13.362 10.58 24.62 24.164 24.62 13.585 0 24.515-11.258 24.515-24.62 0 13.362 11.32 24.62 24.903 24.62 11.313 0 23.773-11.714 23.773-25.046V38.298c-.2-6.354-21.287-30.58-31.988-36.933C180.118.197 157.056-.005 122.685 0c-34.37.003-81.228.54-90.697 1.365zm65.194 66.217a28.025 28.025 0 0 1-4.78 6.155c-5.128 5.014-12.157 8.122-19.906 8.122a28.482 28.482 0 0 1-19.948-8.126c-1.858-1.82-3.27-3.766-4.563-6.032l-.006.004c-1.292 2.27-3.092 4.215-4.954 6.037a28.5 28.5 0 0 1-19.948 8.12c-.934 0-1.906-.258-2.692-.528-1.092 11.372-1.553 22.24-1.716 30.164l-.002.045c-.02 4.024-.04 7.333-.06 11.93.21 23.86-2.363 77.334 10.52 90.473 19.964 4.655 56.7 6.775 93.555 6.788h.006c36.854-.013 73.59-2.133 93.554-6.788 12.883-13.14 10.31-66.614 10.52-90.474-.022-4.596-.04-7.905-.06-11.93l-.003-.045c-.162-7.926-.623-18.793-1.715-30.165-.786.27-1.757.528-2.692.528a28.5 28.5 0 0 1-19.948-8.12c-1.862-1.822-3.662-3.766-4.955-6.037l-.006-.004c-1.294 2.266-2.705 4.213-4.563 6.032a28.48 28.48 0 0 1-19.947 8.125c-7.748 0-14.778-3.11-19.906-8.123a28.025 28.025 0 0 1-4.78-6.155 27.99 27.99 0 0 1-4.736 6.155 28.49 28.49 0 0 1-19.95 8.124c-.27 0-.54-.012-.81-.02h-.007c-.27.008-.54.02-.813.02a28.49 28.49 0 0 1-19.95-8.123 27.992 27.992 0 0 1-4.736-6.155zm-20.486 26.49l-.002.01h.015c8.113.017 15.32 0 24.25 9.746 7.028-.737 14.372-1.105 21.722-1.094h.006c7.35-.01 14.694.357 21.723 1.094 8.93-9.747 16.137-9.73 24.25-9.746h.014l-.002-.01c3.833 0 19.166 0 29.85 30.007L210 165.244c8.504 30.624-2.723 31.373-16.727 31.4-20.768-.773-32.267-15.855-32.267-30.935-11.496 1.884-24.907 2.826-38.318 2.827h-.006c-13.412 0-26.823-.943-38.318-2.827 0 15.08-11.5 30.162-32.267 30.935-14.004-.027-25.23-.775-16.726-31.4L46.85 124.08c10.684-30.007 26.017-30.007 29.85-30.007zm45.985 23.582v.006c-.02.02-21.863 20.08-25.79 27.215l14.304-.573v12.474c0 .584 5.74.346 11.486.08h.006c5.744.266 11.485.504 11.485-.08v-12.474l14.304.573c-3.928-7.135-25.79-27.215-25.79-27.215v-.006l-.003.002z"/></symbol>

<symbol id="kofi" viewBox="0 2 32 24" fill-rule="evenodd" clip-rule="evenodd" stroke-linejoin="round" stroke-miterlimit="1.414"><path d="M31.844 11.932c-1.032-5.448-6.48-6.125-6.48-6.125h-24.4c-0.808 0-0.907 1.063-0.907 1.063s-0.109 9.767-0.027 15.767c0.22 3.228 3.448 3.561 3.448 3.561s11.021-0.031 15.953-0.067c3.251-0.568 3.579-3.423 3.541-4.98 5.808 0.323 9.896-3.776 8.871-9.219zM17.093 16.615c-1.661 1.932-5.348 5.297-5.348 5.297s-0.161 0.161-0.417 0.031c-0.099-0.073-0.14-0.12-0.14-0.12-0.595-0.588-4.491-4.063-5.381-5.271-0.943-1.287-1.385-3.599-0.119-4.948 1.265-1.344 4.005-1.448 5.817 0.541 0 0 2.083-2.375 4.625-1.281 2.536 1.095 2.443 4.016 0.963 5.751zM25.323 17.251c-1.24 0.156-2.244 0.036-2.244 0.036v-7.573h2.359c0 0 2.631 0.735 2.631 3.516 0 2.552-1.313 3.557-2.745 4.021z"/></symbol>


<symbol id="rss" fill-rule="evenodd" clip-rule="evenodd" stroke-linejoin="round" stroke-miterlimit="1.414"><path d="M12.8 16C12.8 8.978 7.022 3.2 0 3.2V0c8.777 0 16 7.223 16 16h-3.2zM2.194 11.61c1.21 0 2.195.985 2.195 2.196 0 1.21-.99 2.194-2.2 2.194C.98 16 0 15.017 0 13.806c0-1.21.983-2.195 2.194-2.195zM10.606 16h-3.11c0-4.113-3.383-7.497-7.496-7.497v-3.11c5.818 0 10.606 4.79 10.606 10.607z"/></symbol>

<symbol id="twitter" fill-rule="evenodd" clip-rule="evenodd" stroke-linejoin="round" stroke-miterlimit="1.414"><path d="M16 3.038c-.59.26-1.22.437-1.885.517.677-.407 1.198-1.05 1.443-1.816-.634.37-1.337.64-2.085.79-.598-.64-1.45-1.04-2.396-1.04-1.812 0-3.282 1.47-3.282 3.28 0 .26.03.51.085.75-2.728-.13-5.147-1.44-6.766-3.42C.83 2.58.67 3.14.67 3.75c0 1.14.58 2.143 1.46 2.732-.538-.017-1.045-.165-1.487-.41v.04c0 1.59 1.13 2.918 2.633 3.22-.276.074-.566.114-.865.114-.21 0-.41-.02-.61-.058.42 1.304 1.63 2.253 3.07 2.28-1.12.88-2.54 1.404-4.07 1.404-.26 0-.52-.015-.78-.045 1.46.93 3.18 1.474 5.04 1.474 6.04 0 9.34-5 9.34-9.33 0-.14 0-.28-.01-.42.64-.46 1.2-1.04 1.64-1.7z" fill-rule="nonzero"/></symbol>


</svg>
